<svg xmlns="http://www.w3.org/2000/svg" viewBox="0 0 663 500"><path fill="#000" fill-rule="evenodd" d="M 4 224 L 0 250 L 1 275 L 13 317 L 43 368 L 79 411 L 74 413 L 47 412 L 71 437 L 94 456 L 129 472 L 192 486 L 267 496 L 320 499 L 411 496 L 470 488 L 546 470 L 605 449 L 662 421 L 599 370 L 575 346 L 558 316 L 534 328 L 507 336 L 502 362 L 492 368 L 437 379 L 363 382 L 363 320 L 461 316 L 547 302 L 561 242 L 563 181 L 552 118 L 532 63 L 453 47 L 362 40 L 361 0 L 327 0 L 327 39 L 325 41 L 241 47 L 159 64 L 173 85 L 187 114 L 197 151 L 200 181 L 199 209 L 193 239 L 181 271 L 166 298 L 238 311 L 326 319 L 326 383 L 234 383 L 182 380 L 144 373 L 114 362 L 85 345 L 61 323 L 46 298 L 38 273 L 37 250 L 43 236 L 55 227 L 73 224 L 77 221 L 78 200 L 74 191 L 60 182 L 35 185 L 15 202 Z M 514 406 L 524 398 L 540 390 L 554 387 L 565 387 L 582 392 L 606 410 L 601 414 L 580 423 L 557 425 L 533 418 Z M 401 76 L 436 79 L 449 100 L 457 119 L 467 160 L 469 201 L 465 232 L 451 275 L 438 299 L 434 301 L 401 301 L 409 285 L 420 254 L 426 227 L 429 191 L 427 161 L 423 138 L 414 108 L 400 78 Z M 265 76 L 281 100 L 293 130 L 298 157 L 298 192 L 292 222 L 277 259 L 261 283 L 252 283 L 226 278 L 246 239 L 254 212 L 258 188 L 258 159 L 254 134 L 246 108 L 232 80 Z"/></svg>